<?xml version="1.0" encoding="UTF-8" standalone="no"?>
<!-- Created with Inkscape (http://www.inkscape.org/) -->

<svg
   width="18in"
   height="18in"
   viewBox="0 0 1728 1728"
   version="1.1"
   id="svg5"
   xml:space="preserve"
   sodipodi:docname="abarrows-logo-white-final.svg"
   inkscape:version="1.3 (0e150ed, 2023-07-21)"
   inkscape:export-filename="abarrows-logo-transparent-2023-09-12.svg"
   inkscape:export-xdpi="96"
   inkscape:export-ydpi="96"
   xmlns:inkscape="http://www.inkscape.org/namespaces/inkscape"
   xmlns:sodipodi="http://sodipodi.sourceforge.net/DTD/sodipodi-0.dtd"
   xmlns:xlink="http://www.w3.org/1999/xlink"
   xmlns="http://www.w3.org/2000/svg"
   xmlns:svg="http://www.w3.org/2000/svg"><sodipodi:namedview
     id="namedview7"
     pagecolor="#000000"
     bordercolor="#000000"
     borderopacity="0.25"
     inkscape:showpageshadow="2"
     inkscape:pageopacity="0.0"
     inkscape:pagecheckerboard="true"
     inkscape:deskcolor="#d1d1d1"
     inkscape:document-units="px"
     showgrid="false"
     inkscape:zoom="1"
     inkscape:cx="810.5"
     inkscape:cy="1271"
     inkscape:window-width="1728"
     inkscape:window-height="1051"
     inkscape:window-x="106"
     inkscape:window-y="1118"
     inkscape:window-maximized="0"
     inkscape:current-layer="layer1"
     showguides="false"
     inkscape:export-bgcolor="#ffffff00"><sodipodi:guide
       position="1203.7447,1604.641"
       orientation="0,-1"
       id="guide940"
       inkscape:locked="false" /><sodipodi:guide
       position="834,572.25"
       orientation="0,-1"
       id="guide54"
       inkscape:locked="false" /><sodipodi:guide
       position="706,486"
       orientation="0,-1"
       id="guide55"
       inkscape:locked="false" /><sodipodi:guide
       position="948,1226"
       orientation="0,-1"
       id="guide6"
       inkscape:locked="false" /></sodipodi:namedview><defs
     id="defs2"><inkscape:path-effect
       effect="fillet_chamfer"
       id="path-effect4"
       is_visible="true"
       lpeversion="1"
       nodesatellites_param="F,0,0,1,0,0,0,1 @ F,0,0,1,0,5.5299123,0,1 @ F,0,0,1,0,0,0,1 @ F,0,0,1,0,11.660319,0,1 @ F,0,0,1,0,13.6987,0,1 @ F,0,0,1,0,0,0,1 @ F,0,0,1,0,0,0,1 @ F,0,0,1,0,0,0,1"
       radius="0"
       unit="px"
       method="auto"
       mode="F"
       chamfer_steps="1"
       flexible="false"
       use_knot_distance="true"
       apply_no_radius="true"
       apply_with_radius="true"
       only_selected="false"
       hide_knots="false" /><linearGradient
       id="linearGradient64"
       inkscape:label="Brand Orange Darker"><stop
         style="stop-color:#f68712;stop-opacity:1;"
         offset="0"
         id="stop64" /><stop
         style="stop-color:#b4630a;stop-opacity:1;"
         offset="1"
         id="stop63" /></linearGradient><linearGradient
       id="linearGradient36-1"
       inkscape:label="Brand Orange Darker"><stop
         style="stop-color:#b4630a;stop-opacity:1;"
         offset="0"
         id="stop41" /><stop
         style="stop-color:#f68712;stop-opacity:1;"
         offset="1"
         id="stop42" /></linearGradient><linearGradient
       id="linearGradient36"
       inkscape:label="Brand Orange"><stop
         style="stop-color:#c86e0e;stop-opacity:1;"
         offset="0"
         id="stop38" /><stop
         style="stop-color:#f68712;stop-opacity:1;"
         offset="1"
         id="stop39" /></linearGradient><linearGradient
       id="swatch59"
       inkscape:swatch="solid"><stop
         style="stop-color:#000000;stop-opacity:1;"
         offset="0"
         id="stop59" /></linearGradient><linearGradient
       inkscape:collect="always"
       xlink:href="#linearGradient36"
       id="linearGradient37"
       x1="845.60577"
       y1="837.18512"
       x2="1077.8134"
       y2="837.18512"
       gradientUnits="userSpaceOnUse" /><linearGradient
       inkscape:collect="always"
       xlink:href="#linearGradient64"
       id="linearGradient41"
       x1="622.90515"
       y1="927.80597"
       x2="840.3183"
       y2="927.80597"
       gradientUnits="userSpaceOnUse"
       gradientTransform="translate(-2)" /><linearGradient
       inkscape:collect="always"
       xlink:href="#linearGradient36-1"
       id="linearGradient60"
       x1="876.27173"
       y1="1023.3361"
       x2="1064.4734"
       y2="1023.3361"
       gradientUnits="userSpaceOnUse" /></defs><g
     inkscape:groupmode="layer"
     id="layer3"
     inkscape:label="B Top"
     style="display:inline"
     transform="matrix(0.94893003,0,0,0.94893003,43.185063,36.072231)"><path
       style="display:inline;fill:url(#linearGradient37);fill-opacity:1;stroke-width:0.94684"
       d="M 1050.1501,968.04062 845.60579,761.60819 v -55.2786 l 232.20761,233.33275"
       id="path674-3"
       sodipodi:nodetypes="cccc"
       inkscape:label="Top of B"
       inkscape:export-filename="abarrows-logo-transparent-2023-09-12.png"
       inkscape:export-xdpi="96"
       inkscape:export-ydpi="96" /><path
       style="display:inline;mix-blend-mode:normal;fill:url(#linearGradient60);fill-opacity:1"
       d="m 1064.4734,946.65633 -9.7275,-39.80307 -30.998,31.45672 -53.13333,52.80746 c -75.40577,75.13726 -93.85577,93.40696 -94.13332,93.40676 -0.27755,-3e-4 -0.27961,56.499 -0.005,55.275 0.275,-1.2239 19.78657,-21.55 98.84769,-102.26 z"
       id="path54"
       inkscape:label="Bottom Right of B"
       transform="matrix(1.0538185,0,0,1.0538185,-45.509217,-38.013584)" /></g><g
     inkscape:label="Shadows"
     id="g3"
     style="display:inline"
     inkscape:groupmode="layer"><rect
       style="display:inline;fill:#ffffff;fill-opacity:1;stroke:none;stroke-width:0.499632"
       id="rect19"
       width="37.78196"
       height="10.471791"
       x="838.32788"
       y="929.62317" /><rect
       style="display:inline;fill:#ffffff;fill-opacity:1;stroke:none;stroke-width:0.498464"
       id="rect19-5"
       width="37.605442"
       height="10.471791"
       x="838.46466"
       y="976.73169" /></g><g
     inkscape:label="Logo"
     id="layer1"
     style="display:inline"
     inkscape:groupmode="layer"><g
       id="g58"
       inkscape:label="Bottom Left Branch"><path
         d="m 625.78687,1240.8887 c -18.54573,-3.8836 -35.67494,-14.9656 -46.47368,-30.067 -15.28443,-21.3743 -19.06863,-45.8557 -10.89751,-70.5 7.56197,-22.8071 27.45789,-42.2532 50.20271,-49.0677 l 4.16848,-1.2489 v -36.026 c 0,-34.668 -2.56342,-40.38 2.12115,-40.4077 l 32.90675,-0.195 c 4.08355,-0.024 1.9721,6.0105 1.9721,40.2228 v 36.3573 l 5.70196,1.7973 c 26.34631,8.305 46.49207,31.3704 51.88619,59.4059 7.50214,38.9917 -17.21788,78.1029 -56.08815,88.7409 -8.05402,2.2042 -27.15387,2.7358 -35.5,0.9881 z m 23.20078,-36.6746 c 11.81236,-2.4688 22.48607,-10.5268 27.83063,-21.0103 10.25639,-20.1183 2.45976,-43.6022 -17.79837,-53.6098 -7.30336,-3.6078 -8.07541,-3.7723 -17.70668,-3.7723 -9.37014,0 -10.53595,0.2292 -16.76629,3.2969 -8.5313,4.2005 -15.2641,10.9411 -19.17826,19.2002 -2.84031,5.9933 -3.08022,7.3257 -3.06157,17.0029 0.0177,9.1728 0.34627,11.1952 2.59956,16 3.78293,8.0665 10.83747,15.3613 18.50646,19.1368 9.65163,4.7515 16.20523,5.7139 25.57452,3.7556 z"
         style="display:inline;mix-blend-mode:normal;fill:#f28512;fill-opacity:1"
         id="path1"
         sodipodi:nodetypes="sssscsssscssssssssssssss"
         inkscape:label="Bottom Left Branch Circle with Line" /><path
         style="display:none;mix-blend-mode:normal;fill:#000000;fill-opacity:1"
         d="m 653.96723,1202.8197 c 12.99914,-4.5358 22.95079,-15.79 26.19543,-29.1024 0.72262,-2.9648 1.22261,-7.9241 1.03361,-10.969 -0.87114,-14.0348 -10.12559,-27.8099 -23.4782,-34.0682 -1.86469,-0.874 -3.32816,-1.5186 -4.89732,-1.9842 -6.15252,-1.8256 -17.05297,-1.9712 -23.11673,0.1061 -2.96988,1.0174 -10.98869,4.8494 -16.34991,10.1374 -3.41136,3.3648 -6.25726,7.3058 -8.2723,11.5577 C 602.27837,1154.4126 602,1155.9033 602,1165 c 0,9.1819 0.26254,10.5543 3.20928,16.7753 8.76881,18.5122 29.88949,27.6281 48.75795,21.0444 z"
         id="path4"
         inkscape:label="Bottom Branch Circle Inside"
         sodipodi:nodetypes="sssssssss"
         inkscape:original-d="m 653.96723,1202.8197 c 14.73938,-5.143 25.56069,-18.9237 27.12915,-34.5484 1.58732,-15.8126 -8.27326,-32.5115 -23.37831,-39.5912 -5.06407,-2.3736 -7.169,-3.0551 -16.46807,-3.0551 -9.65522,0 -10.77319,0.6229 -16.75286,3.4568 -8.33032,3.9479 -15.46746,11.085 -19.41533,19.4153 C 602.27837,1154.4126 602,1155.9033 602,1165 c 0,9.1819 0.26254,10.5543 3.20928,16.7753 8.76881,18.5122 29.88949,27.6281 48.75795,21.0444 z"
         inkscape:path-effect="#path-effect4" /><circle
         style="display:none;fill:#ffffff;stroke-width:0.785714"
         id="path5"
         cx="640"
         cy="1164"
         r="44"
         inkscape:label="Bottom Branch Circle" /></g><g
       id="g56"
       inkscape:label="Bottom Branch"
       style="display:inline"
       transform="translate(0,-116)"><path
         id="path1-5"
         style="display:inline;mix-blend-mode:normal;fill:#000000;fill-opacity:1"
         inkscape:label="Bottom Branch Circle"
         d="m 876.47656,1354.207 -38,0.1582 -3.25,0.6993 c -5.37764,1.1573 -15.55643,6.1459 -22.16992,10.8652 -32.13673,22.9323 -42.35128,65.5208 -23.88867,99.5957 11.55488,21.3259 31.44563,35.5144 56.13867,40.0449 7.31347,1.3418 24.7883,0.2994 32.43555,-1.9355 35.80454,-10.4638 58.83302,-42.8768 56.41406,-79.4043 -0.76281,-11.5189 -2.73969,-18.9992 -7.7168,-29.2051 -4.64267,-9.5202 -12.31949,-19.1875 -20.42187,-25.7149 -6.47348,-5.215 -18.65326,-11.8826 -25.29102,-13.8457 z m -19,35.8184 c 9.29906,0 11.15469,0.3061 16.21875,2.6797 15.10504,7.0797 24.96427,23.7792 23.37696,39.5918 -1.56846,15.6247 -12.38955,29.4039 -27.12891,34.5469 -18.86844,6.5836 -39.98901,-2.5308 -48.75781,-21.043 -2.94674,-6.221 -3.20899,-7.5935 -3.20899,-16.7754 0,-9.0967 0.2786,-10.5884 3.08203,-16.5039 3.94787,-8.3303 11.08571,-15.4681 19.41602,-19.416 5.97966,-2.8339 7.34674,-3.0801 17.00195,-3.0801 z" /></g><g
       id="g53"
       style="display:inline"
       inkscape:label="Top Right Branch"><path
         id="path1-8"
         style="display:inline;mix-blend-mode:normal;fill:#000000;fill-opacity:1"
         inkscape:label="Top Right Circle"
         d="m 1086.2754,503.76367 c -8.8826,-0.30544 -20.2303,0.53999 -26.3027,2.19727 -14.5507,3.97116 -30.8482,14.69727 -40.0235,26.34179 -6.0104,7.62797 -12.9564,22.04183 -14.9004,30.91993 -2.0204,9.23433 -2.0167,25.39943 0.01,34.60546 3.4093,15.4881 14.654,33.35413 27.1934,43.20704 6.613,5.19632 16.4359,10.50176 23.9726,12.94726 l 5.25,1.70313 0.012,76.66992 c 0.01,42.16826 0.018,97.13324 0.018,122.14453 l 0.01,45.47461 -6.9961,7.10156 9.7539,39.78516 34.7012,-34.83594 -0.2872,-127 c -0.1581,-69.84993 0.067,-127.51513 0.5,-128.14453 0.4331,-0.6294 4.3872,-2.53307 8.7872,-4.23047 24.2269,-9.34611 42.742,-30.90427 48.0488,-55.94336 2.9938,-14.12559 1.1404,-33.42623 -4.4649,-46.49219 -9.9812,-23.26632 -32.8466,-41.45545 -57.5078,-45.75 -2.1261,-0.37024 -4.8126,-0.59935 -7.7734,-0.70117 z m -6.4492,36.90039 c 18.7481,-0.29853 36.3257,13.26187 39.832,33.70899 1.4927,8.70484 0.3293,15.59954 -4.1758,24.77343 -3.7296,7.59488 -10.1161,13.59941 -18.7812,17.6543 -12.8248,6.00146 -28.6453,4.39481 -39.7012,-4.03125 -24.751,-18.86351 -20.9771,-55.31105 7.0859,-68.44336 5.15,-2.40994 10.4908,-3.57852 15.7403,-3.66211 z" /></g><g
       inkscape:groupmode="layer"
       id="layer4"
       inkscape:label="Branch Lines"
       style="display:inline"><path
         style="display:inline;mix-blend-mode:normal;fill:#000000;fill-opacity:1;stroke-width:0.883078"
         d="m 874.8728,759.30582 c -0.12117,-81.50123 0.51209,-132.42834 0.52264,-171.90849 0.017,-63.59965 0.86371,-88.1573 0.86371,-88.1573 l -38.49771,-0.30294 c 0,0 0.71518,36.79577 0.71518,92.67389 v 189.15831 306.79051 154.8926 l 37.98772,0.2755 -0.4181,-155.3439"
         id="path48"
         sodipodi:nodetypes="csccsccccc"
         inkscape:label="Main Branch Line" /></g><g
       id="g54"
       style="display:inline"
       inkscape:label="Top Branch"
       transform="translate(0,104)"><path
         id="path51"
         style="display:inline;mix-blend-mode:normal;fill:#000000;fill-opacity:1"
         inkscape:label="Top Branch Circle"
         d="m 856.97656,246.08984 c -14.83584,0.0552 -21.47533,1.48578 -33.31054,7.17969 -20.29412,9.76348 -36.16999,29.42974 -41.55664,51.47852 -2.13013,8.71905 -2.25998,26.2561 -0.25977,34.88086 13.54845,58.41973 81.37747,75.53996 122.24414,44.5625 20.46472,-15.51254 31.42762,-39.43241 30.0957,-65.66602 -0.6197,-12.20561 -2.99382,-20.76276 -9.01953,-32.5 -5.70392,-11.11043 -19.84554,-25.24848 -31.19336,-31.18555 -12.86734,-6.73207 -21.63831,-8.8071 -37,-8.75 z m 0.98047,36.80078 c 12.83604,0.30176 25.39946,6.9793 33.25977,19.22852 3.3996,5.29784 6.25976,14.62229 6.25976,20.40625 0,4.73881 -2.4759,14.05069 -5.10547,19.20508 -3.09178,6.06041 -11.52252,13.94768 -18.39453,17.20898 -4.89089,2.32111 -7.66365,2.91469 -15,3.21289 -12.98753,0.52791 -21.33612,-2.71633 -30.30664,-11.77734 -16.28552,-16.44983 -14.40098,-44.36402 3.97656,-58.89062 7.61743,-6.02123 16.528,-8.80022 25.31055,-8.59376 z" /></g><g
       id="g57"
       inkscape:label="The A and Hyphen"
       transform="translate(0.5)"
       inkscape:export-filename="abarrows-logo-transparent-2023-09-12.png"
       inkscape:export-xdpi="96"
       inkscape:export-ydpi="96"><path
         style="display:inline;fill:url(#linearGradient41);stroke-width:0.891919"
         d="M 838.31826,807.85395 620.90517,1014.3993 646.96384,1047.758 838.31826,859.92616 Z"
         id="path674"
         sodipodi:nodetypes="ccccc"
         inkscape:label="Top Left of A" /><path
         style="display:inline;fill:#f68712;fill-opacity:1;stroke-width:0.94684"
         d="m 592.11136,990.68139 378.66757,0.76163 39.08807,-39.08787 -375.31522,0.79559"
         id="path46"
         sodipodi:nodetypes="cccc"
         inkscape:label="Middle Line Between A and B"
         transform="matrix(0.94893003,0,0,0.94893003,43.185063,36.072231)" /></g></g></svg>
