<?xml version="1.0" encoding="UTF-8"?><svg id="Layer_1" xmlns="http://www.w3.org/2000/svg" viewBox="0 0 161.45 218.39"><defs><style>.cls-1{fill:#4f2b8c;}</style></defs><path class="cls-1" d="m161.45,151.58V0h-72.42v148.16h-16.6V0H0v151.58c0,35.94,36.14,66.8,80.73,66.81h0c44.59,0,80.73-30.87,80.73-66.81ZM36.48,79.49c-9.82,0-17.77-7.96-17.77-17.78s7.96-17.77,17.77-17.77,17.78,7.96,17.78,17.77-7.96,17.78-17.78,17.78Zm88.5,0c-9.82,0-17.78-7.96-17.78-17.78s7.96-17.77,17.78-17.77,17.78,7.96,17.78,17.77-7.96,17.78-17.78,17.78Z"/></svg>